<svg width="35" height="30" viewBox="0 0 35 30" fill="none" xmlns="http://www.w3.org/2000/svg">
<path d="M17.5 0C18.4283 0 19.3185 0.451529 19.9749 1.25526C20.6313 2.05898 21 3.14907 21 4.28571C21 4.8 20.93 5.29286 20.79 5.76429C27.9125 7.5 33.25 14.8071 33.25 23.5714H1.75C1.75 14.8071 7.0875 7.5 14.21 5.76429C14.07 5.29286 14 4.8 14 4.28571C14 3.14907 14.3687 2.05898 15.0251 1.25526C15.6815 0.451529 16.5717 0 17.5 0ZM35 30H0V25.7143H35V30ZM17.5 9.64286C12.0575 9.64286 7.4375 13.6929 5.845 19.2857H29.155C27.5625 13.6929 22.9425 9.64286 17.5 9.64286Z" fill="white"/>
</svg>
