<svg width="20" height="24" viewBox="0 0 20 24" fill="none" xmlns="http://www.w3.org/2000/svg">
<path d="M6.66667 24H15.5556V21C18.2333 19.044 20 15.744 20 12V2.4C20 1.76348 19.7659 1.15303 19.3491 0.702944C18.9324 0.252856 18.3671 0 17.7778 0H13.3333C12.1 0 11.1111 1.08 11.1111 2.4V12H0C0 15.708 2.22222 19.2 6.66667 21V24ZM2.54444 14.4H17.4556C16.8222 16.692 15.3 18.6 13.3333 19.596V21.6H8.88889V19.596C6.66667 19.2 3.17778 16.692 2.54444 14.4ZM13.3333 2.4H17.7778V12H13.3333V2.4ZM14.4444 3.6V7.2H16.6667V3.6H14.4444Z" fill="#865DFF"/>
</svg>
